<?xml version="1.0" encoding="UTF-8" standalone="no"?>
<svg
   xmlns:dc="http://purl.org/dc/elements/1.1/"
   xmlns:cc="http://creativecommons.org/ns#"
   xmlns:rdf="http://www.w3.org/1999/02/22-rdf-syntax-ns#"
   xmlns:svg="http://www.w3.org/2000/svg"
   xmlns="http://www.w3.org/2000/svg"
   xmlns:xlink="http://www.w3.org/1999/xlink"
   xmlns:sodipodi="http://sodipodi.sourceforge.net/DTD/sodipodi-0.dtd"
   xmlns:inkscape="http://www.inkscape.org/namespaces/inkscape"
   width="32px"
   height="32px"
   viewBox="0 0 32 32"
   version="1.1"
   id="svg18"
   sodipodi:docname="icon_fav_active.svg"
   inkscape:version="0.92.5 (2060ec1f9f, 2020-04-08)">
  <metadata
     id="metadata22">
    <rdf:RDF>
      <cc:Work
         rdf:about="">
        <dc:format>image/svg+xml</dc:format>
        <dc:type
           rdf:resource="http://purl.org/dc/dcmitype/StillImage" />
      </cc:Work>
    </rdf:RDF>
  </metadata>
  <sodipodi:namedview
     pagecolor="#ffffff"
     bordercolor="#666666"
     borderopacity="1"
     objecttolerance="10"
     gridtolerance="10"
     guidetolerance="10"
     inkscape:pageopacity="0"
     inkscape:pageshadow="2"
     inkscape:window-width="1920"
     inkscape:window-height="1023"
     id="namedview20"
     showgrid="false"
     inkscape:zoom="7.375"
     inkscape:cx="16"
     inkscape:cy="16"
     inkscape:window-x="0"
     inkscape:window-y="0"
     inkscape:window-maximized="1"
     inkscape:current-layer="GIFOS" />
  <!-- Generator: Sketch 63.1 (92452) - https://sketch.com -->
  <title
     id="title2">icon-fav-hover</title>
  <desc
     id="desc4">Created with Sketch.</desc>
  <defs
     id="defs7">
    <path
       d="M16.277005,9.49708565 C17.2350987,8.53854203 18.5348228,8 19.8900901,8 C21.2453574,8 22.5450815,8.53854203 23.5031752,9.49708565 C24.461458,10.4549185 25,11.7546426 25,13.1099099 C25,14.4651772 24.461458,15.7649013 23.5030448,16.7228646 L16.5555186,23.6703908 C16.2485981,23.9773114 15.7509815,23.9773114 15.444061,23.6703908 L8.49653479,16.7228646 C6.50115505,14.7274848 6.50115507,11.492335 8.49653484,9.49695525 C10.4919146,7.50157548 13.7270644,7.50157545 15.7224442,9.4969552 L15.9997898,9.77430079 L16.277005,9.49708565 Z M15.9997898,22.0032043 L21.5585127,16.4444814 L22.3917176,15.6112765 C23.0553247,14.9479809 23.4281615,14.0481719 23.4281615,13.1099099 C23.4281615,12.1716479 23.0553247,11.271839 22.3917176,10.6085433 C21.728161,9.94467529 20.8283521,9.5718385 19.8900901,9.5718385 C18.9518281,9.5718385 18.0520191,9.94467529 17.388593,10.6084129 L16.5555186,11.4414873 C16.2485981,11.7484078 15.7509815,11.7484078 15.444061,11.4414873 L14.6109866,10.6084129 C13.2294479,9.22687423 10.9895312,9.22687425 9.6079925,10.6084129 C8.22645385,11.9899516 8.22645383,14.2298683 9.60799246,15.611407 L15.9997898,22.0032043 Z"
       id="path-1" />
  </defs>
  <g
     id="GIFOS"
     stroke="none"
     stroke-width="1"
     fill="none"
     fill-rule="evenodd">
    <g
       id="00-UI-Kit"
       transform="translate(-858.000000, -2777.000000)">
      <g
         id="icon-fav-hover"
         transform="translate(858.000000, 2777.000000)">
        <rect
           id="Rectangle-Copy-7"
           fill="#FFFFFF"
           fill-rule="nonzero"
           x="0"
           y="0"
           width="32"
           height="32"
           rx="6" />
        <mask
           id="mask-2"
           fill="white">
          <use
             xlink:href="#path-1"
             id="use10" />
        </mask>
        <use
           fill="#572EE5"
           fill-rule="nonzero"
           xlink:href="#path-1"
           id="use13" />
      </g>
    </g>
    <path
       style="fill:#ffffff;fill-opacity:1;stroke:#ffffff;stroke-width:0.13559322;stroke-miterlimit:4;stroke-dasharray:none;stroke-opacity:1"
       d="M 12.604131,18.578534 C 8.9223755,14.877723 8.6779661,14.538993 8.6779661,13.137212 c 0,-1.337416 0.6255173,-2.41585 1.7591129,-3.03283 1.536438,-0.8362342 2.852365,-0.5994179 4.360669,0.784752 0.52762,0.484197 1.024085,0.880358 1.103254,0.880358 0.282617,0 0.747521,-0.318598 1.493333,-1.023378 0.545239,-0.515242 0.959943,-0.7756508 1.482238,-0.9307556 0.901311,-0.2676607 1.126966,-0.268144 2.015371,-0.00432 1.408163,0.4181796 2.454559,1.8311246 2.454559,3.3143816 0,1.347693 -0.302515,1.758509 -4.020726,5.460145 l -3.373489,3.35845 z"
       id="path829"
       inkscape:connector-curvature="0" />
    <path
       style="fill:#572ee5;fill-opacity:1;stroke:#572ee5;stroke-width:2;stroke-miterlimit:4;stroke-dasharray:none;stroke-opacity:1"
       d="M 12.614477,18.583051 C 10.472741,16.429575 9.1656521,15.00849 8.9665265,14.616949 8.5354124,13.769249 8.5327466,12.482301 8.9602752,11.599145 9.5825532,10.31369 11.035541,9.4947066 12.437184,9.6393689 c 0.899646,0.092852 1.277863,0.2911311 2.49484,1.3079171 1.122011,0.937441 1.089751,0.93875 2.240554,-0.09091 1.043319,-0.9334896 1.612286,-1.1805263 2.718947,-1.1805263 1.095435,0 1.790688,0.2953227 2.559922,1.0873783 0.91983,0.947118 1.173034,2.641435 0.571998,3.827522 -0.214145,0.422594 -1.449487,1.791155 -3.606562,3.995493 -1.80447,1.844006 -3.322235,3.352739 -3.372811,3.352739 -0.05058,0 -1.593894,-1.510169 -3.429595,-3.355932 z"
       id="path831"
       inkscape:connector-curvature="0" />
  </g>
</svg>
